{
	"asset":{
		"generator":"Khronos glTF Blender I/O v4.5.49",
		"version":"2.0"
	},
	"scene":0,
	"scenes":[
		{
			"name":"Scene",
			"nodes":[
				0,
				1,
				2,
				3
			]
		}
	],
	"nodes":[
		{
			"mesh":0,
			"name":"Plane",
			"scale":[
				7.628076553344727,
				7.628076553344727,
				7.628076553344727
			]
		},
		{
			"mesh":1,
			"name":"Table_Large_Rectangular_01_Circle.004",
			"scale":[
				0.23782861232757568,
				0.23782861232757568,
				0.23782861232757568
			],
			"translation":[
				-6.00225305557251,
				0,
				0
			]
		},
		{
			"mesh":2,
			"name":"screen",
			"rotation":[
				0.06933487951755524,
				-0.6927541494369507,
				0.02368013560771942,
				0.7174423933029175
			],
			"scale":[
				3.292895793914795,
				3.292895555496216,
				3.292895793914795
			],
			"translation":[
				-5.7559919357299805,
				1.9171603918075562,
				-0.059178754687309265
			]
		},
		{
			"mesh":3,
			"name":"computer",
			"rotation":[
				0.06933487951755524,
				-0.6927541494369507,
				0.02368013560771942,
				0.7174423933029175
			],
			"scale":[
				3.292895793914795,
				3.292895555496216,
				3.292895793914795
			],
			"translation":[
				-5.7559919357299805,
				1.9171603918075562,
				-0.059178754687309265
			]
		}
	],
	"materials":[
		{
			"doubleSided":true,
			"name":"Material.001",
			"pbrMetallicRoughness":{
				"baseColorFactor":[
					0.43369221687316895,
					0.06417961418628693,
					0.14518415927886963,
					1
				],
				"metallicFactor":0,
				"roughnessFactor":0.5
			}
		},
		{
			"name":"795548",
			"pbrMetallicRoughness":{
				"baseColorFactor":[
					0.4745100140571594,
					0.33333298563957214,
					0.282353013753891,
					1
				],
				"metallicFactor":0,
				"roughnessFactor":0.9039215445518494
			}
		},
		{
			"name":"mat17",
			"pbrMetallicRoughness":{
				"baseColorFactor":[
					0.05999999865889549,
					0.10000000149011612,
					0.12999999523162842,
					1
				],
				"metallicFactor":0
			}
		},
		{
			"name":"mat22",
			"pbrMetallicRoughness":{
				"baseColorFactor":[
					0.3499999940395355,
					0.3499999940395355,
					0.3499999940395355,
					1
				],
				"metallicFactor":0
			}
		},
		{
			"name":"mat21",
			"pbrMetallicRoughness":{
				"metallicFactor":0
			}
		},
		{
			"name":"mat15",
			"pbrMetallicRoughness":{
				"baseColorFactor":[
					0.6299999952316284,
					0.699999988079071,
					0.7200000286102295,
					1
				],
				"metallicFactor":0
			}
		},
		{
			"name":"mat9",
			"pbrMetallicRoughness":{
				"baseColorFactor":[
					0.27000001072883606,
					0.550000011920929,
					0.07000000029802322,
					1
				],
				"metallicFactor":0
			}
		}
	],
	"meshes":[
		{
			"name":"Plane",
			"primitives":[
				{
					"attributes":{
						"POSITION":0,
						"NORMAL":1,
						"TEXCOORD_0":2
					},
					"indices":3,
					"material":0
				}
			]
		},
		{
			"name":"Table_Large_Rectangular_01_Circle.004-Mesh",
			"primitives":[
				{
					"attributes":{
						"POSITION":4,
						"NORMAL":5,
						"TEXCOORD_0":6
					},
					"indices":7,
					"material":1
				}
			]
		},
		{
			"name":"mesh1262710399",
			"primitives":[
				{
					"attributes":{
						"POSITION":8,
						"NORMAL":9,
						"TEXCOORD_0":10
					},
					"indices":11,
					"material":2
				}
			]
		},
		{
			"name":"mesh51422144",
			"primitives":[
				{
					"attributes":{
						"POSITION":12,
						"NORMAL":13,
						"TEXCOORD_0":14
					},
					"indices":15,
					"material":3
				},
				{
					"attributes":{
						"POSITION":16,
						"NORMAL":17,
						"TEXCOORD_0":18
					},
					"indices":19,
					"material":4
				},
				{
					"attributes":{
						"POSITION":20,
						"NORMAL":21,
						"TEXCOORD_0":22
					},
					"indices":23,
					"material":2
				},
				{
					"attributes":{
						"POSITION":24,
						"NORMAL":25,
						"TEXCOORD_0":26
					},
					"indices":27,
					"material":5
				},
				{
					"attributes":{
						"POSITION":28,
						"NORMAL":29,
						"TEXCOORD_0":30
					},
					"indices":23,
					"material":6
				}
			]
		}
	],
	"accessors":[
		{
			"bufferView":0,
			"componentType":5126,
			"count":66,
			"max":[
				1,
				0.944964587688446,
				1.0562338829040527
			],
			"min":[
				-1.0562338829040527,
				-0.05623389035463333,
				-1
			],
			"type":"VEC3"
		},
		{
			"bufferView":1,
			"componentType":5126,
			"count":66,
			"type":"VEC3"
		},
		{
			"bufferView":2,
			"componentType":5126,
			"count":66,
			"type":"VEC2"
		},
		{
			"bufferView":3,
			"componentType":5123,
			"count":132,
			"type":"SCALAR"
		},
		{
			"bufferView":4,
			"componentType":5126,
			"count":216,
			"max":[
				5.871726989746094,
				7.543402194976807,
				9.89596176147461
			],
			"min":[
				-5.871726989746094,
				0,
				-9.903390884399414
			],
			"type":"VEC3"
		},
		{
			"bufferView":5,
			"componentType":5126,
			"count":216,
			"type":"VEC3"
		},
		{
			"bufferView":6,
			"componentType":5126,
			"count":216,
			"type":"VEC2"
		},
		{
			"bufferView":7,
			"componentType":5123,
			"count":384,
			"type":"SCALAR"
		},
		{
			"bufferView":8,
			"componentType":5126,
			"count":26,
			"max":[
				0.09370575845241547,
				0.38829800486564636,
				0.07147648930549622
			],
			"min":[
				-0.1476597934961319,
				0.18415500223636627,
				0.037858400493860245
			],
			"type":"VEC3"
		},
		{
			"bufferView":9,
			"componentType":5126,
			"count":26,
			"type":"VEC3"
		},
		{
			"bufferView":10,
			"componentType":5126,
			"count":26,
			"type":"VEC2"
		},
		{
			"bufferView":11,
			"componentType":5123,
			"count":36,
			"type":"SCALAR"
		},
		{
			"bufferView":12,
			"componentType":5126,
			"count":848,
			"max":[
				0.1614914834499359,
				0.008715406991541386,
				0.02843334898352623
			],
			"min":[
				-0.18630251288414001,
				-0.0507194846868515,
				-0.08192582428455353
			],
			"type":"VEC3"
		},
		{
			"bufferView":13,
			"componentType":5126,
			"count":848,
			"type":"VEC3"
		},
		{
			"bufferView":14,
			"componentType":5126,
			"count":848,
			"type":"VEC2"
		},
		{
			"bufferView":15,
			"componentType":5123,
			"count":1188,
			"type":"SCALAR"
		},
		{
			"bufferView":16,
			"componentType":5126,
			"count":48,
			"max":[
				0.17433369159698486,
				0.14029191434383392,
				0.34243232011795044
			],
			"min":[
				-0.19910380244255066,
				-0.06352709233760834,
				-0.08933781087398529
			],
			"type":"VEC3"
		},
		{
			"bufferView":17,
			"componentType":5126,
			"count":48,
			"type":"VEC3"
		},
		{
			"bufferView":18,
			"componentType":5126,
			"count":48,
			"type":"VEC2"
		},
		{
			"bufferView":19,
			"componentType":5123,
			"count":72,
			"type":"SCALAR"
		},
		{
			"bufferView":20,
			"componentType":5126,
			"count":24,
			"max":[
				-0.023524127900600433,
				0.06178690493106842,
				0.11263211816549301
			],
			"min":[
				-0.16718101501464844,
				-0.002296909922733903,
				0.056570108979940414
			],
			"type":"VEC3"
		},
		{
			"bufferView":21,
			"componentType":5126,
			"count":24,
			"type":"VEC3"
		},
		{
			"bufferView":22,
			"componentType":5126,
			"count":24,
			"type":"VEC2"
		},
		{
			"bufferView":23,
			"componentType":5123,
			"count":36,
			"type":"SCALAR"
		},
		{
			"bufferView":24,
			"componentType":5126,
			"count":54,
			"max":[
				0.12732690572738647,
				0.42502522468566895,
				0.3149375319480896
			],
			"min":[
				-0.1877231001853943,
				0.09560634195804596,
				0.041518185287714005
			],
			"type":"VEC3"
		},
		{
			"bufferView":25,
			"componentType":5126,
			"count":54,
			"type":"VEC3"
		},
		{
			"bufferView":26,
			"componentType":5126,
			"count":54,
			"type":"VEC2"
		},
		{
			"bufferView":27,
			"componentType":5123,
			"count":84,
			"type":"SCALAR"
		},
		{
			"bufferView":28,
			"componentType":5126,
			"count":24,
			"max":[
				0.14452239871025085,
				0.08806635439395905,
				0.06580939888954163
			],
			"min":[
				0.12324368953704834,
				0.06596161425113678,
				0.05450328812003136
			],
			"type":"VEC3"
		},
		{
			"bufferView":29,
			"componentType":5126,
			"count":24,
			"type":"VEC3"
		},
		{
			"bufferView":30,
			"componentType":5126,
			"count":24,
			"type":"VEC2"
		}
	],
	"bufferViews":[
		{
			"buffer":0,
			"byteLength":792,
			"byteOffset":0,
			"target":34962
		},
		{
			"buffer":0,
			"byteLength":792,
			"byteOffset":792,
			"target":34962
		},
		{
			"buffer":0,
			"byteLength":528,
			"byteOffset":1584,
			"target":34962
		},
		{
			"buffer":0,
			"byteLength":264,
			"byteOffset":2112,
			"target":34963
		},
		{
			"buffer":0,
			"byteLength":2592,
			"byteOffset":2376,
			"target":34962
		},
		{
			"buffer":0,
			"byteLength":2592,
			"byteOffset":4968,
			"target":34962
		},
		{
			"buffer":0,
			"byteLength":1728,
			"byteOffset":7560,
			"target":34962
		},
		{
			"buffer":0,
			"byteLength":768,
			"byteOffset":9288,
			"target":34963
		},
		{
			"buffer":0,
			"byteLength":312,
			"byteOffset":10056,
			"target":34962
		},
		{
			"buffer":0,
			"byteLength":312,
			"byteOffset":10368,
			"target":34962
		},
		{
			"buffer":0,
			"byteLength":208,
			"byteOffset":10680,
			"target":34962
		},
		{
			"buffer":0,
			"byteLength":72,
			"byteOffset":10888,
			"target":34963
		},
		{
			"buffer":0,
			"byteLength":10176,
			"byteOffset":10960,
			"target":34962
		},
		{
			"buffer":0,
			"byteLength":10176,
			"byteOffset":21136,
			"target":34962
		},
		{
			"buffer":0,
			"byteLength":6784,
			"byteOffset":31312,
			"target":34962
		},
		{
			"buffer":0,
			"byteLength":2376,
			"byteOffset":38096,
			"target":34963
		},
		{
			"buffer":0,
			"byteLength":576,
			"byteOffset":40472,
			"target":34962
		},
		{
			"buffer":0,
			"byteLength":576,
			"byteOffset":41048,
			"target":34962
		},
		{
			"buffer":0,
			"byteLength":384,
			"byteOffset":41624,
			"target":34962
		},
		{
			"buffer":0,
			"byteLength":144,
			"byteOffset":42008,
			"target":34963
		},
		{
			"buffer":0,
			"byteLength":288,
			"byteOffset":42152,
			"target":34962
		},
		{
			"buffer":0,
			"byteLength":288,
			"byteOffset":42440,
			"target":34962
		},
		{
			"buffer":0,
			"byteLength":192,
			"byteOffset":42728,
			"target":34962
		},
		{
			"buffer":0,
			"byteLength":72,
			"byteOffset":42920,
			"target":34963
		},
		{
			"buffer":0,
			"byteLength":648,
			"byteOffset":42992,
			"target":34962
		},
		{
			"buffer":0,
			"byteLength":648,
			"byteOffset":43640,
			"target":34962
		},
		{
			"buffer":0,
			"byteLength":432,
			"byteOffset":44288,
			"target":34962
		},
		{
			"buffer":0,
			"byteLength":168,
			"byteOffset":44720,
			"target":34963
		},
		{
			"buffer":0,
			"byteLength":288,
			"byteOffset":44888,
			"target":34962
		},
		{
			"buffer":0,
			"byteLength":288,
			"byteOffset":45176,
			"target":34962
		},
		{
			"buffer":0,
			"byteLength":192,
			"byteOffset":45464,
			"target":34962
		}
	],
	"buffers":[
		{
			"byteLength":45656,
			"uri":"Untitled.bin"
		}
	]
}
